<?xml version="1.0" encoding="UTF-8"?><svg id="Layer_2" xmlns="http://www.w3.org/2000/svg" viewBox="0 0 1000 1000"><defs><style>.cls-1{fill:#fff;}.cls-2{fill:#161616;}</style></defs><g id="Layer_3"><g><path class="cls-2" d="M500,0h0C775.96,0,1000,224.04,1000,500h0c0,275.96-224.04,500-500,500h0C224.04,1000,0,775.96,0,500H0C0,224.04,224.04,0,500,0Z"/><g><path class="cls-1" d="M608.85,711.39l71.14,71.13c-51.28,32.2-111.94,50.81-176.96,50.81-184.09,0-333.33-149.24-333.33-333.33S318.94,166.67,503.03,166.67c65.02,0,125.68,18.61,176.96,50.81l-71.14,71.13-2.2,2.2c-31.81-15.79-67.07-24.14-103.62-24.14-62.32,0-120.92,24.27-164.99,68.34-44.07,44.07-68.34,102.66-68.34,164.99s24.27,120.92,68.34,164.99c44.07,44.07,102.67,68.34,164.99,68.34,36.55,0,71.81-8.35,103.62-24.14l2.2,2.2Z"/><path class="cls-1" d="M815.65,762.62c19.53,19.53,19.53,51.19,0,70.71-9.76,9.77-22.55,14.65-35.35,14.65s-25.6-4.88-35.36-14.65l-56.37-56.37-72.65-72.64-168.96-168.96c-19.52-19.53-19.52-51.19,0-70.72l168.96-168.96,72.65-72.64,56.37-56.37c9.76-9.77,22.56-14.65,35.36-14.65s25.59,4.88,35.35,14.65c9.77,9.76,14.65,22.55,14.65,35.35s-4.88,25.6-14.65,35.36l-227.26,227.26c-19.53,19.53-19.53,51.19,0,70.72l227.26,227.26Z"/></g></g></g></svg>