<?xml version="1.0" encoding="UTF-8"?><svg id="Layer_2" xmlns="http://www.w3.org/2000/svg" viewBox="0 0 1000 1000"><defs><style>.cls-1{fill:#fff;}.cls-2{fill:#161616;}</style></defs><g id="Layer_3"><path class="cls-2" d="M500,0h0C775.96,0,1000,224.04,1000,500h0c0,275.96-224.04,500-500,500h0C224.04,1000,0,775.96,0,500H0C0,224.04,224.04,0,500,0Z"/><g><path class="cls-1" d="M465.73,272.1c57.04,0,101.54,18.54,133.52,55.68l78.76-76.53,.06-.06c-15.22-14.54-32.13-27.29-50.73-38.21-45.74-26.79-99.64-40.17-161.61-40.17s-115.78,13.38-161.52,40.17c-45.74,26.76-81.25,64.52-106.47,113.29-25.3,48.71-37.94,106.46-37.94,173.27s12.64,123.79,37.94,172.82c25.21,49.06,60.9,87.09,106.91,114.18,46.01,27.08,99.73,40.64,161.08,40.64s115.87-13.56,161.61-40.64c15.66-9.31,30.29-19.99,43.61-31.98l-78.52-76.24c-31.56,33.05-73.8,49.57-126.7,49.57-58.32,0-103.77-20.17-136.25-60.46-32.48-40.34-48.77-96.32-48.77-167.9s16.29-128.15,48.77-167.87c32.48-39.75,77.93-59.57,136.25-59.57Z"/><path class="cls-1" d="M644.01,425.32l93.77-91.07,98.13-96.04c5.74-5.62,5.72-14.86-.04-20.45l-35.95-34.93c-5.56-5.4-14.41-5.38-19.95,.04l-86.28,84.52-80.86,78.55-136.13,132.18c-7.59,7.39-11.93,17.59-11.93,28.21s4.33,20.79,11.93,28.21l130.23,126.49,80.18,77.87,80.14,78.72c5.53,5.44,14.4,5.46,19.96,.06l35.94-34.9c5.76-5.59,5.78-14.83,.05-20.45l-90.2-88.48-91.63-89.08-70.1-68.02c-5.84-5.7-5.84-15.1,0-20.79l72.74-70.63Z"/></g></g></svg>